<?xml version="1.0" encoding="UTF-8" standalone="no"?>
<!DOCTYPE svg PUBLIC "-//W3C//DTD SVG 1.1//EN" "http://www.w3.org/Graphics/SVG/1.1/DTD/svg11.dtd">
<svg xmlns="http://www.w3.org/2000/svg" version="1.1" viewBox="0.00 0.00 1024.00 1024.00">
<path fill="#eb7f2d" d="
  M 501.50 557.52
  L 499.37 557.61
  L 498.57 557.32
  L 498.22 556.55
  L 498.22 556.52
  L 498.22 470.72
  L 498.48 469.93
  L 499.27 469.63
  L 518.99 468.73
  L 523.88 468.29
  L 528.55 467.57
  L 533.03 466.57
  L 537.29 465.30
  L 541.35 463.76
  L 545.20 461.94
  L 548.84 459.85
  L 552.28 457.48
  L 552.28 457.48
  L 552.28 457.48
  L 556.64 453.79
  L 560.62 449.58
  L 564.21 444.86
  L 567.41 439.63
  L 569.57 435.29
  L 571.40 430.72
  L 572.92 425.91
  L 574.12 420.88
  L 575.15 414.58
  L 575.68 408.33
  L 575.71 402.15
  L 575.24 396.02
  L 575.24 396.02
  L 575.24 396.02
  L 575.24 396.02
  L 575.24 396.02
  L 574.66 391.96
  L 573.85 387.92
  L 572.82 383.91
  L 571.57 379.93
  L 569.15 373.92
  L 566.19 368.46
  L 562.70 363.58
  L 558.68 359.25
  L 558.68 359.25
  L 558.68 359.25
  L 554.77 355.95
  L 550.46 353.08
  L 545.74 350.64
  L 540.63 348.61
  L 535.46 347.14
  L 529.86 346.10
  L 523.82 345.50
  L 517.35 345.34
  L 475.03 345.45
  L 472.81 344.88
  L 469.35 343.20
  L 435.35 324.64
  L 414.48 313.48
  L 413.74 312.96
  L 413.17 312.26
  L 412.81 311.43
  L 412.69 310.54
  L 412.69 250.85
  L 412.85 250.05
  L 413.30 249.37
  L 413.97 248.92
  L 414.77 248.75
  L 469.17 248.53
  L 521.56 248.72
  L 529.94 249.28
  L 545.10 250.88
  L 555.78 252.45
  L 566.19 254.69
  L 576.33 257.61
  L 586.20 261.20
  L 586.20 261.20
  L 586.20 261.20
  L 592.97 264.12
  L 599.61 267.38
  L 608.41 272.38
  L 616.67 277.92
  L 622.11 282.10
  L 627.30 286.52
  L 632.21 291.18
  L 636.87 296.07
  L 636.87 296.07
  L 636.87 296.07
  L 636.87 296.07
  L 636.87 296.07
  L 642.78 303.11
  L 648.20 310.59
  L 653.13 318.52
  L 657.58 326.88
  L 660.59 333.40
  L 663.29 340.05
  L 665.73 346.92
  L 667.86 353.88
  L 669.69 360.98
  L 671.22 368.15
  L 672.45 375.48
  L 673.38 382.86
  L 673.99 390.34
  L 674.29 397.83
  L 674.27 405.33
  L 673.95 412.81
  L 673.31 420.26
  L 672.36 427.66
  L 671.10 435.00
  L 669.53 442.26
  L 667.79 448.90
  L 665.77 455.42
  L 663.48 461.81
  L 660.90 468.08
  L 660.90 468.08
  L 660.90 468.08
  L 656.94 476.43
  L 652.45 484.55
  L 647.45 492.44
  L 641.93 500.11
  L 638.77 504.07
  L 635.49 507.86
  L 632.08 511.48
  L 628.55 514.93
  L 623.37 519.56
  L 618.01 523.91
  L 612.48 527.99
  L 606.77 531.79
  L 606.77 531.79
  L 606.77 531.79
  L 606.77 531.79
  L 599.27 536.22
  L 591.49 540.20
  L 583.43 543.73
  L 575.08 546.82
  L 564.51 550.07
  L 553.89 552.69
  L 543.22 554.69
  L 532.50 556.07
  L 518.16 557.08
  L 501.50 557.52
  Z"
/>
<path fill="#eb7f2d" d="
  M 351.96 307.11
  L 484.72 378.37
  L 485.14 378.77
  L 485.31 379.34
  L 485.16 379.91
  L 484.75 380.33
  L 352.01 456.91
  L 351.45 457.06
  L 350.89 456.91
  L 350.48 456.50
  L 350.33 455.94
  L 350.31 308.09
  L 350.55 307.40
  L 351.20 307.00
  L 351.96 307.11
  Z"
/>
<path fill="#eb7f2d" d="
  M 464.72 557.44
  L 383.57 557.46
  L 382.94 557.33
  L 382.40 556.98
  L 382.04 556.44
  L 381.92 555.81
  L 381.86 480.00
  L 382.08 479.18
  L 382.68 478.57
  L 463.85 431.48
  L 464.68 431.25
  L 465.50 431.47
  L 466.11 432.08
  L 466.33 432.90
  L 466.37 555.79
  L 466.24 556.42
  L 465.89 556.96
  L 465.35 557.31
  L 464.72 557.44
  Z"
/>
<path fill="#000000" d="
  M 430.67 720.68
  L 430.27 720.99
  L 430.25 721.50
  L 430.30 721.60
  L 465.22 773.45
  L 465.30 773.76
  L 464.99 773.87
  L 440.79 773.87
  L 439.57 773.56
  L 438.64 772.72
  L 405.64 723.72
  L 405.00 723.15
  L 404.18 722.94
  L 385.20 722.94
  L 385.20 722.94
  L 384.76 723.12
  L 384.58 723.57
  L 384.58 773.01
  L 384.33 773.63
  L 383.71 773.88
  L 362.59 773.88
  L 362.10 773.68
  L 361.90 773.19
  L 361.90 641.61
  L 362.15 641.00
  L 362.76 640.74
  L 414.32 640.63
  L 419.20 640.74
  L 423.95 641.09
  L 428.59 641.67
  L 433.10 642.48
  L 437.65 643.69
  L 441.82 645.35
  L 445.61 647.45
  L 449.02 649.99
  L 449.02 649.99
  L 451.17 652.01
  L 454.02 655.47
  L 456.45 659.51
  L 458.47 664.13
  L 460.08 669.33
  L 460.90 673.20
  L 461.40 677.09
  L 461.40 677.09
  L 461.40 677.09
  L 461.40 677.09
  L 461.56 682.05
  L 461.20 687.06
  L 460.32 692.11
  L 458.92 697.20
  L 457.08 701.74
  L 454.59 705.94
  L 452.50 708.61
  L 450.16 711.02
  L 447.52 713.24
  L 444.66 715.19
  L 441.47 716.96
  L 438.09 718.45
  L 434.45 719.71
  L 430.67 720.68
  Z
  M 384.63 660.80
  L 384.55 703.20
  L 384.67 703.48
  L 384.94 703.59
  L 418.03 703.65
  L 422.12 703.28
  L 426.05 702.15
  L 429.67 700.33
  L 432.85 697.87
  L 435.46 694.86
  L 437.40 691.44
  L 438.10 689.61
  L 438.60 687.72
  L 438.90 685.79
  L 439.01 683.85
  L 439.01 680.35
  L 439.01 680.35
  L 438.92 678.40
  L 438.62 676.48
  L 438.12 674.59
  L 437.43 672.75
  L 435.50 669.32
  L 432.90 666.31
  L 429.74 663.83
  L 426.12 662.00
  L 422.19 660.86
  L 418.11 660.47
  L 385.02 660.41
  L 385.02 660.41
  L 384.74 660.53
  L 384.63 660.80
  Z"
/>
<path fill="#000000" d="
  M 241.91 728.18
  L 241.91 773.21
  L 241.73 773.65
  L 241.29 773.83
  L 219.96 773.83
  L 219.59 773.71
  L 219.34 773.21
  L 219.34 641.46
  L 219.45 641.11
  L 219.80 640.99
  L 242.22 640.71
  L 265.99 640.80
  L 272.83 641.06
  L 279.09 641.71
  L 284.75 642.72
  L 289.93 644.13
  L 294.64 645.94
  L 298.85 648.14
  L 302.67 650.81
  L 305.99 653.86
  L 309.04 657.59
  L 311.55 661.73
  L 313.62 666.47
  L 315.16 671.63
  L 315.91 675.33
  L 316.39 679.02
  L 316.59 682.70
  L 316.52 686.35
  L 316.52 686.35
  L 316.52 686.35
  L 316.52 686.35
  L 316.14 690.20
  L 315.45 694.02
  L 314.45 697.83
  L 313.14 701.62
  L 311.77 704.72
  L 310.13 707.66
  L 310.13 707.66
  L 308.29 710.35
  L 306.19 712.88
  L 303.83 715.25
  L 301.23 717.47
  L 297.87 719.81
  L 294.11 721.88
  L 290.09 723.61
  L 285.71 725.04
  L 281.01 726.16
  L 276.01 726.98
  L 270.63 727.49
  L 265.00 727.69
  L 242.53 727.57
  L 242.09 727.74
  L 241.91 728.18
  L 241.91 728.18
  Z
  M 241.78 661.03
  L 241.86 707.45
  L 242.01 707.86
  L 242.39 708.10
  L 242.53 708.11
  L 270.18 708.07
  L 272.53 707.96
  L 274.86 707.64
  L 277.14 707.11
  L 279.36 706.38
  L 281.48 705.46
  L 283.50 704.35
  L 285.39 703.07
  L 287.13 701.62
  L 288.70 700.02
  L 290.10 698.29
  L 291.31 696.45
  L 292.31 694.50
  L 293.10 692.48
  L 293.67 690.39
  L 294.01 688.26
  L 294.12 686.11
  L 294.12 686.11
  L 294.12 682.17
  L 294.00 680.03
  L 293.65 677.90
  L 293.07 675.82
  L 292.28 673.79
  L 291.27 671.85
  L 290.05 670.01
  L 288.65 668.28
  L 287.07 666.69
  L 285.32 665.25
  L 283.43 663.98
  L 281.41 662.87
  L 279.28 661.96
  L 277.06 661.24
  L 274.78 660.72
  L 272.45 660.41
  L 270.10 660.31
  L 242.45 660.35
  L 241.97 660.55
  L 241.78 661.03
  Z"
/>
<path fill="#000000" d="
  M 566.10 640.78
  L 577.73 640.86
  L 578.09 640.93
  L 578.69 641.52
  L 631.76 773.04
  L 631.73 773.56
  L 631.31 773.86
  L 631.20 773.87
  L 609.12 773.87
  L 608.41 773.65
  L 607.94 773.07
  L 597.33 746.77
  L 596.88 746.21
  L 596.19 746.00
  L 566.16 745.99
  L 536.14 746.04
  L 535.45 746.25
  L 535.00 746.81
  L 524.42 773.12
  L 523.95 773.70
  L 523.24 773.92
  L 501.16 773.95
  L 501.05 773.94
  L 500.63 773.63
  L 500.60 773.12
  L 553.51 641.54
  L 553.60 641.36
  L 553.98 641.01
  L 554.47 640.87
  L 566.10 640.78
  Z
  M 542.33 725.69
  L 542.35 726.20
  L 542.73 726.54
  L 542.94 726.58
  L 588.90 726.42
  L 588.93 726.42
  L 589.44 726.12
  L 589.50 725.53
  L 566.32 666.77
  L 566.20 666.57
  L 565.60 666.36
  L 565.11 666.77
  L 542.33 725.69
  Z"
/>
<path fill="#000000" d="
  M 692.62 684.60
  L 692.53 685.26
  L 692.36 773.26
  L 692.20 773.66
  L 691.80 773.83
  L 691.80 773.83
  L 691.80 773.83
  L 670.51 773.83
  L 670.11 773.72
  L 669.81 773.43
  L 669.70 773.02
  L 669.70 641.35
  L 669.83 641.05
  L 670.13 640.93
  L 697.42 640.93
  L 698.34 641.18
  L 698.93 641.94
  L 728.43 714.31
  L 733.72 727.60
  L 738.02 738.98
  L 738.28 739.52
  L 738.55 739.70
  L 738.82 739.53
  L 739.09 738.99
  L 741.43 732.86
  L 755.66 696.35
  L 777.63 641.39
  L 777.86 641.10
  L 778.22 640.99
  L 804.33 640.99
  L 804.83 641.16
  L 804.99 641.65
  L 804.99 773.27
  L 804.84 773.67
  L 804.47 773.83
  L 783.50 773.83
  L 783.50 773.83
  L 782.83 773.55
  L 782.55 772.87
  L 782.55 686.87
  L 782.28 686.42
  L 781.77 686.45
  L 781.58 686.68
  L 747.25 772.75
  L 746.60 773.60
  L 745.56 773.89
  L 731.75 773.89
  L 731.29 773.77
  L 730.98 773.38
  L 693.53 685.01
  L 693.15 684.60
  L 692.64 684.59
  L 692.62 684.60
  Z"
/>
</svg>
